HIERARCHY
ROOT Hips
{
 OFFSET 0.000000 0.000000 0.000000
 CHANNELS 6 Xposition Yposition Zposition Yrotation Xrotation Zrotation
 JOINT Chest
 {
  OFFSET 0.000000 9.585900 0.002600
  CHANNELS 3 Yrotation Xrotation Zrotation
  JOINT Chest2
  {
   OFFSET 0.000000 9.601200 -0.005300
   CHANNELS 3 Yrotation Xrotation Zrotation
   JOINT Chest3
   {
    OFFSET 0.000000 9.561800 0.000000
    CHANNELS 3 Yrotation Xrotation Zrotation
    JOINT Chest4
    {
     OFFSET 0.000000 9.552100 0.000000
     CHANNELS 3 Yrotation Xrotation Zrotation
     JOINT Neck
     {
      OFFSET 0.000000 14.453000 0.000000
      CHANNELS 3 Yrotation Xrotation Zrotation
      JOINT Head
      {
       OFFSET 0.000000 8.936500 -0.011300
       CHANNELS 3 Yrotation Xrotation Zrotation
       End Site
       {
        OFFSET 0.000000 17.073600 -0.006000
       }
      }
     }
     JOINT RightCollar
     {
      OFFSET -2.921100 9.558500 0.000000
      CHANNELS 3 Yrotation Xrotation Zrotation
      JOINT RightShoulder
      {
       OFFSET -13.519700 0.000000 0.000000
       CHANNELS 3 Yrotation Xrotation Zrotation
       JOINT RightElbow
       {
        OFFSET 0.000000 -29.696600 0.000000
        CHANNELS 3 Yrotation Xrotation Zrotation
        JOINT RightWrist
        {
         OFFSET 0.000000 -24.004700 0.000000
         CHANNELS 3 Yrotation Xrotation Zrotation
         End Site
         {
          OFFSET 0.000000 -17.728500 0.000000
         }
        }
       }
      }
     }
     JOINT LeftCollar
     {
      OFFSET 2.921100 9.558500 0.000000
      CHANNELS 3 Yrotation Xrotation Zrotation
      JOINT LeftShoulder
      {
       OFFSET 13.519700 0.000000 0.000000
       CHANNELS 3 Yrotation Xrotation Zrotation
       JOINT LeftElbow
       {
        OFFSET 0.000000 -29.696600 0.000000
        CHANNELS 3 Yrotation Xrotation Zrotation
        JOINT LeftWrist
        {
         OFFSET 0.000000 -24.004700 0.000000
         CHANNELS 3 Yrotation Xrotation Zrotation
         End Site
         {
          OFFSET 0.000000 -17.728500 0.000000
         }
        }
       }
      }
     }
    }
   }
  }
 }
 JOINT RightHip
 {
  OFFSET -7.771700 -0.012900 -0.001300
  CHANNELS 3 Yrotation Xrotation Zrotation
  JOINT RightKnee
  {
   OFFSET 0.000000 -40.869800 0.001200
   CHANNELS 3 Yrotation Xrotation Zrotation
   JOINT RightAnkle
   {
    OFFSET 0.000000 -39.717900 0.002100
    CHANNELS 3 Yrotation Xrotation Zrotation
    JOINT RightToe
    {
     OFFSET 0.000000 -4.965400 11.033500
     CHANNELS 3 Yrotation Xrotation Zrotation
     End Site
     {
      OFFSET 0.000000 -1.423100 5.872300
     }
    }
   }
  }
 }
 JOINT LeftHip
 {
  OFFSET 7.771700 -0.012900 -0.001300
  CHANNELS 3 Yrotation Xrotation Zrotation
  JOINT LeftKnee
  {
   OFFSET 0.000000 -40.869800 0.001200
   CHANNELS 3 Yrotation Xrotation Zrotation
   JOINT LeftAnkle
   {
    OFFSET 0.000000 -39.717900 0.002100
    CHANNELS 3 Yrotation Xrotation Zrotation
    JOINT LeftToe
    {
     OFFSET 0.000000 -4.965400 11.033500
     CHANNELS 3 Yrotation Xrotation Zrotation
     End Site
     {
      OFFSET 0.000000 -1.423100 5.872300
     }
    }
   }
  }
 }
}
MOTION
Frames: 10
Frame Time: 0.008333
-10.182644 57.554271 43.718230 -168.869758 -46.516593 -3.813878 -5.547378 27.584969 0.725957 -0.958661 4.979584 0.205822 -1.501264 7.854988 0.294745 -4.355314 22.374219 0.258635 -0.649773 11.271071 -8.880228 2.561325 -14.418598 -16.751159 5.230877 -0.088872 -3.078653 22.234736 -36.306820 -25.991779 -156.634366 -60.903470 -172.198014 9.534112 5.235725 -32.833398 -10.102600 -2.322371 -3.405739 0.228863 -23.677043 6.197584 175.079127 -59.773997 161.031257 -8.192134 -9.750543 29.397769 5.159192 -24.924622 -11.636549 -8.363552 68.594065 -7.819789 4.680410 12.212181 9.991036 -0.247672 -8.351840 0.254928 -10.776133 -32.546849 -7.546272 26.320936 63.053400 21.943440 -9.911024 36.787512 5.545128 1.214824 -21.549311 -7.138146
-10.201566 57.553444 43.730534 -168.810588 -46.569043 -3.887261 -5.573825 27.589774 0.717356 -0.962746 4.986222 0.207531 -1.493689 7.893094 0.319874 -4.370114 22.368711 0.254320 -0.652309 11.317945 -8.820866 2.558875 -14.308693 -16.631328 5.208056 -0.092808 -3.108407 22.184667 -36.327997 -25.887471 -157.090702 -60.827239 -171.868973 9.627779 5.250421 -32.685254 -10.165968 -2.350062 -3.425855 0.117539 -23.889181 6.104445 175.171344 -59.836928 161.005003 -8.216262 -9.681763 29.381213 5.213827 -24.839022 -11.719527 -8.267501 68.577438 -7.572560 4.708603 12.224561 9.984252 -0.283553 -8.352689 0.236156 -10.813472 -32.494607 -7.515462 26.322540 63.050662 21.925425 -9.943943 36.801034 5.542155 1.236463 -21.550608 -7.126606
-10.218537 57.545051 43.750233 -168.759886 -46.565193 -3.956186 -5.596649 27.539003 0.714265 -0.966483 4.993030 0.208992 -1.497952 7.901753 0.322175 -4.394416 22.372143 0.252344 -0.617102 11.380405 -8.770239 2.554547 -14.188102 -16.498499 5.181625 -0.091588 -3.158930 22.148751 -36.342098 -25.741404 -157.502865 -60.755459 -171.577357 9.710025 5.253267 -32.562357 -10.198761 -2.355515 -3.443492 0.002397 -24.102553 6.015896 175.279351 -59.893800 160.967302 -8.235048 -9.611456 29.350321 5.235994 -24.828442 -11.756738 -8.199409 68.560608 -7.416379 4.693677 12.245376 9.970978 -0.278803 -8.348829 0.234746 -10.858270 -32.509892 -7.453161 26.292493 63.051254 21.855454 -9.960856 36.869671 5.560979 1.255290 -21.602949 -7.116490
-10.230767 57.547601 43.759450 -168.674361 -46.653256 -4.087649 -5.625923 27.584961 0.738400 -0.969975 5.000162 0.210320 -1.497558 7.912201 0.328686 -4.423026 22.375354 0.245876 -0.568387 11.424611 -8.745615 2.544575 -14.050776 -16.339796 5.198101 -0.072475 -3.176888 22.102859 -36.356465 -25.640812 -157.861725 -60.688067 -171.332998 9.784686 5.247123 -32.468487 -10.188009 -2.340705 -3.449550 -0.145622 -24.331177 5.916386 175.387662 -59.938452 160.928313 -8.253953 -9.541642 29.299587 5.222759 -24.711647 -11.732804 -8.163357 68.526855 -7.289186 4.682507 12.291871 9.964455 -0.272339 -8.371658 0.228633 -10.941989 -32.416014 -7.383356 26.294492 63.045223 21.839255 -9.982251 36.912123 5.561574 1.274800 -21.643630 -7.114510
-10.244566 57.545753 43.773270 -168.636469 -46.713616 -4.166243 -5.633495 27.600373 0.741688 -0.973336 5.007670 0.211589 -1.504652 7.920535 0.332161 -4.432250 22.389326 0.246578 -0.543482 11.484445 -8.680745 2.563056 -13.941565 -16.228973 5.205980 -0.061085 -3.196469 22.063590 -36.366371 -25.541086 -158.179654 -60.621022 -171.126290 9.852874 5.233378 -32.403478 -10.248796 -2.372226 -3.476564 -0.237110 -24.519128 5.849149 175.501045 -59.967429 160.885204 -8.278761 -9.470762 29.238327 5.214020 -24.639925 -11.706021 -8.108831 68.498517 -7.195975 4.669550 12.330170 9.963765 -0.259439 -8.383684 0.229520 -10.987521 -32.349637 -7.335392 26.301942 63.029754 21.833513 -10.002539 36.934062 5.560200 1.284952 -21.662265 -7.111090
-10.257276 57.537888 43.792794 -168.619686 -46.729690 -4.225647 -5.627911 27.583986 0.755014 -0.971360 5.024296 0.224042 -1.516749 7.908390 0.317116 -4.422504 22.414201 0.262230 -0.559153 11.565255 -8.577957 2.608754 -13.872231 -16.168870 5.192785 -0.061829 -3.223890 22.030245 -36.370342 -25.439573 -158.480702 -60.551749 -170.935134 9.913665 5.214338 -32.362208 -10.335043 -2.420465 -3.508030 -0.324367 -24.696553 5.791399 175.626683 -59.981506 160.832764 -8.305877 -9.402141 29.174163 5.222283 -24.621421 -11.688659 -8.051055 68.474026 -7.103550 4.660484 12.365275 9.969160 -0.252984 -8.388896 0.229279 -11.027865 -32.337229 -7.271498 26.298690 63.025748 21.812474 -10.041516 36.954704 5.539120 1.304248 -21.694946 -7.097781
-10.263340 57.539253 43.802975 -168.553872 -46.818370 -4.368433 -5.624673 27.672109 0.837921 -0.976531 5.015590 0.212847 -1.549231 7.874494 0.263947 -4.412976 22.447242 0.281998 -0.512781 11.618874 -8.517656 2.629765 -13.763459 -16.040833 5.212913 -0.046529 -3.230896 21.997512 -36.372078 -25.333924 -158.770751 -60.481196 -170.753710 9.970830 5.190052 -32.337795 -10.364214 -2.437355 -3.516837 -0.426897 -24.874923 5.733680 175.750095 -59.981866 160.779230 -8.334947 -9.337868 29.113209 5.263336 -24.491748 -11.640345 -8.120417 68.416330 -7.051978 4.683928 12.417667 9.988908 -0.268542 -8.408211 0.220259 -11.115994 -32.242165 -7.172300 26.297865 63.032400 21.801424 -10.061722 36.979687 5.535416 1.320999 -21.718056 -7.100157
-10.273813 57.539101 43.814880 -168.498341 -46.897604 -4.475143 -5.629426 27.710544 0.857982 -0.991929 4.983540 0.161783 -1.541302 7.921141 0.297597 -4.422147 22.462679 0.281043 -0.459339 11.654541 -8.472066 2.649326 -13.640829 -15.890603 5.235965 -0.028526 -3.222104 21.960588 -36.372401 -25.236537 -159.043306 -60.408064 -170.587647 10.035978 5.160578 -32.324055 -10.392505 -2.454079 -3.522495 -0.530882 -25.045077 5.687803 175.858316 -59.971768 160.734009 -8.365353 -9.276587 29.063162 5.276855 -24.385377 -11.602922 -8.188973 68.374113 -7.047064 4.704840 12.447125 9.999514 -0.272443 -8.412627 0.220247 -11.178279 -32.158772 -7.111991 26.297094 63.033168 21.792990 -10.074132 36.993667 5.539747 1.333592 -21.729210 -7.105811
-10.286012 57.536882 43.828609 -168.448386 -46.959758 -4.566744 -5.642268 27.710206 0.830497 -0.986297 5.015465 0.188243 -1.543857 7.932556 0.297964 -4.425765 22.475294 0.280754 -0.426886 11.708067 -8.402437 2.685325 -13.546319 -15.769213 5.233413 -0.011134 -3.226214 21.925148 -36.379616 -25.125985 -159.302925 -60.330118 -170.431186 10.116645 5.126117 -32.318060 -10.433548 -2.481525 -3.534712 -0.636461 -25.205476 5.655658 175.955154 -59.959028 160.695406 -8.389268 -9.224652 29.029513 5.273122 -24.302471 -11.564029 -8.254618 68.332410 -7.069986 4.720780 12.472917 10.017917 -0.275980 -8.411491 0.217827 -11.232788 -32.095459 -7.066019 26.297033 63.027932 21.787019 -10.076169 37.019356 5.552938 1.343534 -21.755213 -7.116918
-10.301481 57.534169 43.842733 -168.387015 -47.015571 -4.650080 -5.662357 27.749919 0.842568 -0.988013 5.018855 0.187137 -1.551680 7.924167 0.272066 -4.420237 22.491378 0.293065 -0.405671 11.788341 -8.305822 2.731189 -13.485315 -15.681825 5.221387 0.004585 -3.237003 21.884156 -36.386149 -25.009505 -159.561991 -60.251186 -170.272373 10.201814 5.082432 -32.315981 -10.484344 -2.521038 -3.556356 -0.741018 -25.354527 5.633218 176.038407 -59.951298 160.664285 -8.406944 -9.187076 29.015785 5.252070 -24.227901 -11.537331 -8.297771 68.295988 -7.089732 4.731162 12.493157 10.033915 -0.275144 -8.408349 0.219513 -11.284045 -32.043681 -7.058460 26.317446 63.015941 21.809119 -10.022068 37.048782 5.598919 1.323923 -21.803432 -7.135220
